<mxfile host="Electron" modified="2023-09-16T23:30:04.947Z" agent="Mozilla/5.0 (Windows NT 10.0; Win64; x64) AppleWebKit/537.36 (KHTML, like Gecko) draw.io/21.7.5 Chrome/114.0.5735.289 Electron/25.8.1 Safari/537.36" etag="CUZNO14GdTk9ErxPxaDb" version="21.7.5" type="device">
  <diagram id="1ioXiZDJJ0_Xo2Vft7kg" name="P치gina-1">
    <mxGraphModel dx="1434" dy="836" grid="1" gridSize="10" guides="1" tooltips="1" connect="1" arrows="1" fold="1" page="1" pageScale="1" pageWidth="827" pageHeight="1169" math="0" shadow="0">
      <root>
        <mxCell id="0" />
        <mxCell id="1" parent="0" />
        <mxCell id="nzb1gLuBbHNh8_0kBAk9-3" value="" style="edgeStyle=orthogonalEdgeStyle;rounded=0;orthogonalLoop=1;jettySize=auto;html=1;" parent="1" source="nzb1gLuBbHNh8_0kBAk9-1" target="nzb1gLuBbHNh8_0kBAk9-2" edge="1">
          <mxGeometry relative="1" as="geometry" />
        </mxCell>
        <mxCell id="nzb1gLuBbHNh8_0kBAk9-1" value="id" style="rounded=0;whiteSpace=wrap;html=1;fontSize=16;fontStyle=1" parent="1" vertex="1">
          <mxGeometry x="80" y="100" width="160" height="60" as="geometry" />
        </mxCell>
        <mxCell id="nzb1gLuBbHNh8_0kBAk9-2" value="fechaTomaPosesi칩n, fechaCese, idUsuario, idComisi칩n, idRepresentaci칩n, estado" style="whiteSpace=wrap;html=1;rounded=0;" parent="1" vertex="1">
          <mxGeometry x="320" y="100" width="160" height="60" as="geometry" />
        </mxCell>
      </root>
    </mxGraphModel>
  </diagram>
</mxfile>
